  <svg width="515" height="282" viewBox="0 0 515 282" fill="none">
    <path
      d="M50.1 233L48.1 226.3H19.3L17.3 233H5L26.6 158.4H40.8L62.5 233H50.1ZM25.8 203.9H41.6L33.7 176.7L25.8 203.9ZM131.44 232.9L106.94 205.4C101.74 206 96.5398 206.4 91.8398 206.6V232.9H66.5398V192.1C66.4398 191.3 66.4398 190.5 66.5398 189.7V157.4H76.5398V157.2H80.3398C117.74 157.2 135.54 160.5 143.74 168.9C147.54 172.8 149.24 177.7 149.04 184C148.74 195.6 133.24 200.5 124.04 202.5L149.54 232.9H131.44ZM134.74 176.8C134.64 169 91.9398 169 91.8398 169V184.6C100.44 184.6 134.84 184.4 134.74 176.8ZM225.337 158.1L223.937 183.2L195.937 184V233H183.737V184.4L155.637 185.2L154.237 160L225.337 158.1Z"
      fill="#181818"
    />
    <path
      d="M427.5 175.7L396.1 223.4V242.1H383V224.7L343.7 181.8L362.8 165L393.3 202L417.5 167.2L427.5 175.7ZM509.212 168.1V180L447.912 228.7L507.712 212.7L509.212 240.5H437.212L435.712 221.8L491.212 179.4L435.712 195V166.5L509.212 168.1Z"
      fill="#181818"
    />
    <path
      d="M260 227L273 216C293.4 221.2 310.167 218.167 316 216C323.2 213.6 326.667 209.333 327.5 207.5C328.667 204.667 329.7 197.8 324.5 193C319.3 188.2 310.667 187.667 307 188L324.5 173C348.1 196.2 336.333 220.333 327.5 229.5C320.5 235 319.5 240 295 242C275.4 243.6 263.5 232.667 260 227Z"
      fill="#181818"
      stroke="#181818"
      strokeWidth="2"
    />
    <path
      d="M238.004 172.66C226.404 193.06 234.246 212.494 239.616 219.66L252.504 208.855C249.304 207.81 245.838 205.29 244.504 204.16C238.904 196.16 242.171 189.494 244.504 187.16C249.704 178.76 274.671 179.119 286.504 180.348L304.004 165.675C300.004 161.691 289.504 157.66 290.504 158.16C291.504 158.66 252.504 147.16 238.004 172.66Z"
      fill="#181818"
      stroke="#181818"
      strokeWidth="2"
    />
    <path
      d="M328.766 123.086L297.579 109.668L378.813 41.13L357.343 91.0293L388.53 104.448L307.296 172.986L328.766 123.086Z"
      fill="#FF734D"
    />
  </svg>