 <svg width="90" height="63" viewBox="0 0 90 63" fill="none">
    <path
      d="M33.1752 34.5267L28.0149 23.9739L84.2655 14.7739L56.2506 28.4733L61.4109 39.0261L5.16029 48.2261L33.1752 34.5267Z"
      fill="#FF734D"
    />
    <path
      d="M13.086 34.518L12.834 39.036L7.794 39.18V48H5.598V39.252L0.54 39.396L0.288 34.86L13.086 34.518ZM21.9839 34.104C26.2499 34.104 29.6879 36.732 29.6879 41.178C29.6879 45.624 26.2499 48.27 21.9839 48.27C17.7179 48.27 14.2799 46.182 14.2799 41.178C14.2799 36.174 17.7179 34.104 21.9839 34.104ZM21.9839 43.95C25.3139 43.95 28.0139 43.194 28.0139 41.178C28.0139 39.162 25.3139 38.406 21.9839 38.406C18.6539 38.406 15.9539 38.91 15.9539 41.178C15.9539 43.446 18.6539 43.95 21.9839 43.95ZM44.7061 36.066L39.0541 44.652V48.018H36.6961V44.886L29.6221 37.164L33.0601 34.14L38.5501 40.8L42.9061 34.536L44.7061 36.066Z"
      fill="#181818"
    />
    <path
      d="M13.032 29.144L11.556 23.96H6.894L4.806 29.144H0.09L5.652 15.284H11.88L15.786 29.144H13.032ZM7.902 21.422H10.854L9.63 17.12L7.902 21.422ZM29.5303 28.982L25.1203 24.032C24.1843 24.14 23.2483 24.212 22.4023 24.248V28.982H17.8483V21.638C17.8303 21.494 17.8303 21.35 17.8483 21.206V15.392H19.6483V15.356H20.3323C27.0643 15.356 30.2683 15.95 31.7443 17.462C32.4283 18.164 32.7343 19.046 32.6983 20.18C32.6443 22.268 29.8543 23.15 28.1983 23.51L32.7883 28.982H29.5303ZM30.1243 18.884C30.1063 17.48 22.4203 17.48 22.4023 17.48V20.288C23.9503 20.288 30.1423 20.252 30.1243 18.884ZM46.4317 15.518L46.1797 20.036L41.1397 20.18V29H38.9437V20.252L33.8857 20.396L33.6337 15.86L46.4317 15.518Z"
      fill="#181818"
    />
  </svg>